<svg xmlns="http://www.w3.org/2000/svg" viewBox="0 0 768 768"><defs><style>.cls-1{fill:#1a1a1a;}.cls-2{fill:#42210b;}.cls-3{fill:#754c24;}.cls-4{fill:#8c6239;}.cls-5{fill:#a67c52;}.cls-6{fill:#c69c6d;}.cls-7{fill:#d4a37a;}.cls-8{fill:#ffd3ab;}.cls-9{fill:#b88b61;}.cls-10{fill:#dbaa82;}.cls-11{fill:#ddad85;}.cls-12,.cls-13{font-size:100px;font-family:TRYClother-Black, TRY Clother;font-weight:800;}.cls-12{fill:#333;}.cls-13{fill:#fff;}</style></defs><g id="Слой_2" data-name="Слой 2"><g id="Слой_1-2" data-name="Слой 1"><rect class="cls-1" width="768" height="768"/></g><g id="Слой_2-2" data-name="Слой 2"><path class="cls-2" d="M304,585l69-22q1,42.5,2,85l-69,37Q305,635,304,585Z"/><path class="cls-2" d="M424,486q-2.5,79-5,158l-81-10q.5-75,1-150Z"/><path class="cls-3" d="M181,488l61-6q-.5,43-1,86l-57,17Z"/><path class="cls-4" d="M304,587l-96-16,79-16,83,14Z"/><path class="cls-5" d="M304,587q1,49,2,98l-94-13q-2-50.5-4-101Z"/><path class="cls-5" d="M381,688q-.5-48.5-1-97l166-1q.5,50.5,1,101Z"/><path class="cls-6" d="M534,569H387l-7,22,166-1Z"/><path class="cls-7" d="M424,486l42-11-3,94H421Z"/><path class="cls-8" d="M466,475l-71-4q.5,6.5,1,13l28,2Z"/><path class="cls-9" d="M242,480H404v98l-164-4Q241,527,242,480Z"/><path class="cls-8" d="M404,480l-13-6-140-1-9,9Z"/><path class="cls-4" d="M182,315H394.06L391,474l-140-1-9,9-59-7Q182.51,395,182,315Z"/><path class="cls-8" d="M182,317l-17,15V473l17,11Z"/><path class="cls-8" d="M67,478l98-5,77,9-61,8Z"/><path class="cls-10" d="M67,478v96l95-9,22,6-3-81Z"/><path class="cls-7" d="M59,575l103-11,67,20L122,599Z"/><path class="cls-11" d="M59,575q.49,45,1,90l60,38q1-52,2-104Z"/><path class="cls-9" d="M120,703l114-17q-2.5-51-5-102L122,599Q121,651,120,703Z"/><text class="cls-12" transform="translate(213.98 158.23)">Огромный <tspan x="198.1" y="120">выбор</tspan></text><text class="cls-13" transform="translate(222.98 149.23)">Огромный <tspan x="198.1" y="120">выбор</tspan></text></g></g></svg>