<svg xmlns="http://www.w3.org/2000/svg" viewBox="0 0 768 768"><defs><style>.cls-1{fill:#1a1a1a;}.cls-2{fill:#ff931e;}.cls-3{fill:#f7931e;}.cls-4{fill:#ad401e;}.cls-5{fill:#f15a24;}.cls-6{fill:#fbb03b;}.cls-7,.cls-8{font-size:100px;font-family:TRYClother-Black, TRY Clother;font-weight:800;}.cls-7{fill:#333;}.cls-8{fill:#fff;}</style></defs><g id="Слой_2" data-name="Слой 2"><g id="Слой_1-2" data-name="Слой 1"><rect class="cls-1" width="768" height="768"/></g><g id="Слой_2-2" data-name="Слой 2"><path class="cls-2" d="M596,617c5.48-1,15.68-3.13,20-11a17.69,17.69,0,0,0,2-9c-.13-11.72,0-33.89,0-63-25.89,2.8-63.48,6.73-109,11-73,6.84-110.19,10.28-145,11-57.09,1.18-101.46-2.21-138-5-44.4-3.39-82.15-8-111-12-.38,1.71-9,40.51-5,58,.65,2.89,2,8.86,7,13a19.42,19.42,0,0,0,9,4c74.27,13.79,228,14,228,14h0S532.55,628,596,617Z"/><path class="cls-3" d="M499,380.06c-9.36,4.1-23,16.23-57,38.94-19.84,13.23-29.75,19.85-36,23-27,13.61-45.05,15.35-49,29-1.42,4.91-.62,10.28,1,21,2.19,14.56,5.79,18.75,3,24-3.46,6.51-13,10.09-20,8-5.74-1.72-8.72-7-10-9-12.46-19.71-47.21-25.3-70-29a176.2,176.2,0,0,0-49-1,158.5,158.5,0,0,1,17-15c3.18-2.42,5.61-3.81,16-11,9.06-6.27,15.06-10.06,18-12,15.41-10.15,26.06-21.58,49-41,39.29-33.27,35.26-22.79,53-40,5.51-5.35,13.87-14.09,26-15,6.56-.49,9.25,1.68,16,0,8-2,10.71-6.68,19-13,6.57-5,15.45-11.77,26-13,17.16-2,31.32,11.53,36,16,5.89,5.63,14.49,14.2,15,25A24.64,24.64,0,0,1,499,380.06Z"/><path class="cls-4" d="M576,372c-4.83-2.95-9.3,1.53-22,5-27.67,7.56-49.27-2-51,3-.81,2.35,3.6,5.4,12,12,32,25.11,37.36,35.39,47,33,7.06-1.75,10.81-8.9,14-15C583.07,396.51,584.08,376.94,576,372Z"/><path class="cls-5" d="M618,534a1286.49,1286.49,0,0,1-288,27,1283.7,1283.7,0,0,1-213-22c7.19-15.65,16.13-23.09,23-27,12.36-7,21.36-6.47,41-13a165.34,165.34,0,0,0,31-14,176.2,176.2,0,0,1,49,1c22.79,3.7,57.54,9.29,70,29,1.28,2,4.26,7.28,10,9,7,2.09,16.54-1.49,20-8,2.79-5.25-.81-9.44-3-24-1.62-10.72-2.42-16.09-1-21,3.95-13.65,22-15.39,49-29,6.25-3.15,16.16-9.77,36-23,34-22.71,47.67-34.84,57-38.94A15.38,15.38,0,0,1,510,379c13.42,3.58,12.47,17.89,37,31,8,4.25,20.39,9.05,24,5,3-3.34-2.79-9.61-3-23-.13-8.06,1.74-20.19,6-21,5.57-1.06,14.73,17.3,19,32,3.47,11.94,1.4,13.52,6,29,1.55,5.22,1.91,5.45,8,23,4.32,12.43,6.48,18.65,7,21,2.3,10.31,1.28,14.81,2,32C616.25,514,616.78,523,618,534Z"/><path class="cls-6" d="M366,370c.37,2,20.66-6.58,45,1,17.08,5.32,28.22,16.1,33,12,2.3-2,1.9-6.39,1-9-4.82-14-37.59-13.11-42-13C382.63,361.5,365.66,368.21,366,370Z"/><text/><path class="cls-6" d="M324,403c0-1.14,12.93-3.24,27-3,23.85.41,47.38,7.51,47,11-.24,2.23-10.31,3.17-17,3-12.71-.32-16.88-4.72-32-8C334,402.75,324,404,324,403Z"/><path class="cls-6" d="M303,422c0-1.12,14.53-2.55,31-1,13,1.22,35,5,35,10,0,2.7-6.43,5.49-12,6-9.58.88-14-5.21-26-10C315.51,420.83,303,423,303,422Z"/><path class="cls-6" d="M283,442c.16-1.13,10.18-.78,18,0,14.75,1.48,35.18,5.87,35,10-.09,2-5.11,3.5-8,4-9,1.55-13.59-3.65-29-9C289.08,443.56,282.88,442.89,283,442Z"/><text class="cls-7" transform="translate(207.18 132.79)">Лучшие <tspan x="-122.49" y="120">из кроссовок</tspan></text><text class="cls-8" transform="translate(203.18 122.79)">Лучшие <tspan x="-122.49" y="120">из кроссовок</tspan></text></g></g></svg>