<svg xmlns="http://www.w3.org/2000/svg" viewBox="0 0 1366 768"><defs><style>.cls-1{fill:#1a1a1a;}.cls-2{fill:#ccc;}.cls-3{fill:#2b2623;}.cls-4{fill:#99a1a3;}.cls-5{fill:#4d4d4d;}.cls-6,.cls-7{fill:#333;}.cls-7,.cls-9{font-size:100px;font-family:TRYClother-Black, TRY Clother;font-weight:800;}.cls-8{letter-spacing:0em;}.cls-9{fill:#fff;}</style></defs><g id="Слой_2" data-name="Слой 2"><g id="Слой_1-2" data-name="Слой 1"><rect class="cls-1" width="1366" height="768"/></g><g id="Слой_2-2" data-name="Слой 2"><path class="cls-2" d="M953,230l330-4q9.49,82.5,19,165l-344,5Q955.5,313,953,230Z"/><circle class="cls-3" cx="1138" cy="455" r="38"/><circle class="cls-4" cx="1138" cy="455" r="24"/><circle class="cls-3" cx="817" cy="455" r="38"/><circle class="cls-4" cx="817" cy="455" r="24"/><path class="cls-2" d="M707,416c.27-17.59,6.52-28.16,10-33,5.1-7.09,11.47-11.49,24-20a259.83,259.83,0,0,1,25-15,165.28,165.28,0,0,1,45-1q-.5,22.5-1,45a89.66,89.66,0,0,0-40,23Z"/><path class="cls-2" d="M810,392c15.66.12,25.19,4.77,31,9,14.73,10.73,13.1,24.31,28,31,2.74,1.23,10.82,1.82,27,3,20.19,1.47,22.9.56,25-1,6.47-4.82,5.42-14.6,5-33-.69-30.21,1.83-17.14,1-56-.15-7-.77-22.12-2-52-.35-8.5-.7-16.85-1-24-11.27-1.81-34.87-3.84-59,8-12.68,6.22-22.78,17.15-43,39a40.47,40.47,0,0,0-8,12,42.65,42.65,0,0,0-3,19C811.33,358,811.06,372.23,810,392Z"/><path class="cls-2" d="M856,274a201.08,201.08,0,0,1,19-7c16.55-5.16,33.43-8,50-6,5,.61,10.54,1.73,15,6a22.41,22.41,0,0,1,6,11c4.86,18.92,3.36,45.7,3,55-.53,13.69.71,7.37,1,38,.14,14.83,0,34.56-1,58l-28,5a19.88,19.88,0,0,0,3-4,111.39,111.39,0,0,0,2-14c.51-6.51,0-7.9,0-18,0-10.68.46-11.73.64-30.8,0,0,0-2.82,0-5.71.06-5.12.05-15.31-.68-39.49-.63-20.67-1.38-38.08-2-51a103.48,103.48,0,0,0-51,4Z"/><path d="M856,274c-4.3,3.24-10.13,7.67-17,13s-14.51,11.25-24,19c-11.24,9.18-18.64,15.22-28,24-7.26,6.82-13,12.76-17,17h40a56.27,56.27,0,0,1,4-19c2.24-5.54,6.63-13.68,28-32,6.49-5.56,15.56-12.93,27-21Z"/><path d="M832,312c5.44-9.7,12.33-15.44,19-21,4.89-4.08,10.43-8.61,19-12,3.55-1.4,8-2.27,17-4,18.42-3.56,23-2.59,26,0a14.08,14.08,0,0,1,3,4c4.84,8.54,4.29,17,4,29-.53,22.1.63,23.5-2,27-4,5.31-10.16,6.73-20,9a91.52,91.52,0,0,1-28,2H836c-4,0-6.84,0-9-2C820.67,338.14,826.81,321.24,832,312Z"/><path class="cls-1" d="M824,319c.75-1.74,2-4.72,5-6,.27-.12,3.67-1.52,6,0,2.94,1.92,1.16,6.53,1,20-.09,7.77.41,11.5-2,13-1,.61-1.56.31-7,0-7.14-.41-8,0-9-1-2.51-2.38-1.34-7.94,0-11a15.29,15.29,0,0,1,2.08-3.25A12.63,12.63,0,0,0,821,329C822.1,326.52,822.61,322.25,824,319Z"/><path class="cls-5" d="M707,416l63-1c2.16-2.94,15.91-21.06,40-23,18.9-1.52,32.54,7.84,37,11a61.58,61.58,0,0,1,22,29,139.75,139.75,0,0,0,38,1c18-2,28.77-9.37,42-4,2.39,1,10.91,4.43,12,11a9.12,9.12,0,0,1-1,6c-4.6,7.27-21.18.12-53,0-6,0-9.52.33-21.1.34-9.27,0-16.88-.18-21.9-.34-9.47-29.44-38.13-44.69-61-38-15.93,4.66-28.09,19.7-32,38-1.11.24-20.28,4.3-38,7-3.56.54-9.41,1.21-15.34-1.64L717,451C704.24,443.45,706.59,419.67,707,416Z"/><path class="cls-5" d="M916,443c9.25,2.35,17.07,3.93,23,5,10.13,1.83,13.67,2,15,2,7.75.21,11.63.32,13,0,1.63-.38,4-1.11,5,0,.84.9.47,2.63,0,4l80-2c.67-2,1.33-4,2-6a18.82,18.82,0,0,1,20,6l8-4a29.81,29.81,0,0,0-27-11l-3-5-81,3v6a43.33,43.33,0,0,1-11.66,2.59A41.44,41.44,0,0,1,944,442a38.31,38.31,0,0,1-7-3Z"/><path class="cls-6" d="M958,396q-2.5-83-5-166a56.1,56.1,0,0,0-9,15,58.15,58.15,0,0,0-4,22c0,15.4,3.11,82.51,9,174l145-2a46,46,0,0,1,87,2l94-2q-.49-12-1-24l-10-1q-1-11-2-22l-170,2Z"/><circle class="cls-1" cx="816.5" cy="454.5" r="5"/><path d="M816.5,450a4.5,4.5,0,1,1-4.5,4.5,4.51,4.51,0,0,1,4.5-4.5m0-1a5.5,5.5,0,1,0,5.5,5.5,5.5,5.5,0,0,0-5.5-5.5Z"/><circle class="cls-1" cx="1138.5" cy="455.5" r="5"/><path d="M1138.5,451a4.5,4.5,0,1,1-4.5,4.5,4.51,4.51,0,0,1,4.5-4.5m0-1a5.5,5.5,0,1,0,5.5,5.5,5.5,5.5,0,0,0-5.5-5.5Z"/><text class="cls-7" transform="translate(106.92 265.7)">Достав<tspan class="cls-8" x="342" y="0">к</tspan><tspan x="400.1" y="0">а</tspan><tspan x="0.27" y="120">по всей</tspan><tspan x="0.53" y="240">России</tspan></text><text class="cls-9" transform="translate(106.92 254.7)">Достав<tspan class="cls-8" x="342" y="0">к</tspan><tspan x="400.1" y="0">а</tspan><tspan x="0.27" y="120">по всей</tspan><tspan x="0.53" y="240">России</tspan></text></g></g></svg>