<svg xmlns="http://www.w3.org/2000/svg" viewBox="0 0 1366 768"><defs><style>.cls-1{fill:#1a1a1a;}.cls-2{fill:#42210b;}.cls-3{fill:#754c24;}.cls-4{fill:#8c6239;}.cls-5{fill:#a67c52;}.cls-6{fill:#c69c6d;}.cls-7{fill:#d4a37a;}.cls-8{fill:#ffd3ab;}.cls-9{fill:#b88b61;}.cls-10{fill:#dbaa82;}.cls-11{fill:#ddad85;}.cls-12,.cls-13{font-size:100px;font-family:TRYClother-Black, TRY Clother;font-weight:800;}.cls-12{fill:#333;}.cls-13{fill:#fff;}</style></defs><g id="Слой_2" data-name="Слой 2"><g id="Слой_1-2" data-name="Слой 1"><rect class="cls-1" width="1366" height="768"/></g><g id="Слой_2-2" data-name="Слой 2"><path class="cls-2" d="M408,470l69-22q1,42.5,2,85l-69,37Q409,520,408,470Z"/><path class="cls-2" d="M528,371q-2.5,79-5,158l-81-10q.5-75,1-150Z"/><path class="cls-3" d="M285,373l61-6q-.5,43-1,86l-57,17Z"/><path class="cls-4" d="M408,472l-96-16,79-16,83,14Z"/><path class="cls-5" d="M408,472q1,49,2,98l-94-13q-2-50.5-4-101Z"/><path class="cls-5" d="M485,573q-.5-48.5-1-97l166-1q.5,50.51,1,101Z"/><path class="cls-6" d="M638,454H491l-7,22,166-1Z"/><path class="cls-7" d="M528,371l42-11-3,94H525Z"/><path class="cls-8" d="M570,360l-71-4q.5,6.5,1,13l28,2Z"/><path class="cls-9" d="M346,365H508v98l-164-4Q345,412,346,365Z"/><path class="cls-8" d="M508,365l-13-6-140-1-9,9Z"/><path class="cls-4" d="M286,200H498.06L495,359l-140-1-9,9-59-7Q286.51,280,286,200Z"/><path class="cls-8" d="M286,202l-17,15V358l17,11Z"/><path class="cls-8" d="M171,363l98-5,77,9-61,8Z"/><path class="cls-10" d="M171,363v96l95-9,22,6-3-81Z"/><path class="cls-7" d="M163,460l103-11,67,20L226,484Z"/><path class="cls-11" d="M163,460q.5,45,1,90l60,38q1-52,2-104Z"/><path class="cls-9" d="M224,588l114-17q-2.5-51-5-102L226,484Q225,536,224,588Z"/><text class="cls-12" transform="translate(695.98 293.23)">Огромный <tspan x="198.1" y="120">выбор</tspan></text><text class="cls-13" transform="translate(704.98 284.23)">Огромный <tspan x="198.1" y="120">выбор</tspan></text></g></g></svg>