<svg xmlns="http://www.w3.org/2000/svg" viewBox="0 0 185.91 185.91"><defs><style>.cls-1{fill:#ccc;}</style></defs><g id="Слой_2" data-name="Слой 2"><g id="Слой_2-2" data-name="Слой 2"><path class="cls-1" d="M93,0a93,93,0,1,0,93,93A92.94,92.94,0,0,0,93,0Zm45.65,63.68-15.25,71.9c-1.13,5.1-4.17,6.33-8.4,3.93L91.72,122.38l-11.21,10.8c-1.23,1.23-2.28,2.28-4.68,2.28l1.65-23.65L120.54,72.9c1.88-1.65-.41-2.58-2.89-.93l-53.22,33.5L41.49,98.31c-5-1.57-5.1-5,1-7.38l89.62-34.56c4.16-1.5,7.8,1,6.45,7.31Z"/></g></g></svg>