<svg xmlns="http://www.w3.org/2000/svg" viewBox="0 0 93.71 182"><defs><style>.cls-1{fill:#ccc;}</style></defs><g id="Слой_2" data-name="Слой 2"><g id="Слой_2-2" data-name="Слой 2"><path class="cls-1" d="M48.45,178.81c-22.39-22.39-35.22-64.19-38.75-74C2.83,85.52-2.35,41.9,1.09,25.54c1.59-3,9.85-18.2,23.25-23.25C28,.93,34.7-1.61,40.7,1.43h0a4.9,4.9,0,0,1,2.68,4.18q.67,18.7,1.36,37.41a9.61,9.61,0,0,1-7.42,9.68l-1.78.39c-4.92,1-7,1-9.48,2.59l-.42.28A9.84,9.84,0,0,0,22,66.57l9.24,33.88,10.68,31.28a8.72,8.72,0,0,0,10.85,5.75c2.36-.72,3.45-2.2,6-4.31a36.55,36.55,0,0,1,3.89-2.78,7.36,7.36,0,0,1,10,2.19q9.7,14.71,19.42,29.44A9.55,9.55,0,0,1,91,174a26.63,26.63,0,0,1-6.4,4.85c-7.68,4.13-15.57,3.34-23.25,2.58-5.45-.54-3.45.86-10.33-.86"/></g></g></svg>