<svg xmlns="http://www.w3.org/2000/svg" viewBox="0 0 184.12 184.12"><defs><style>.cls-1{fill:#ccc;}</style></defs><g id="Слой_2" data-name="Слой 2"><g id="Слой_2-2" data-name="Слой 2"><path id="WhatsApp" class="cls-1" d="M184.12,89.69c0,49.53-40.47,89.69-90.39,89.69A90.62,90.62,0,0,1,50,168.22L0,184.12,16.31,136a88.77,88.77,0,0,1-13-46.31C3.34,40.15,43.81,0,93.73,0S184.12,40.15,184.12,89.69ZM93.73,14.28c-41.9,0-76,33.83-76,75.41A74.6,74.6,0,0,0,32.22,133.9l-9.5,28,29.21-9.28a75.89,75.89,0,0,0,41.8,12.47c41.9,0,76-33.82,76-75.4S135.64,14.28,93.73,14.28Zm45.65,96.06c-.56-.91-2-1.46-4.25-2.56S122,101.36,120,100.63s-3.51-1.1-5,1.1-5.72,7.15-7,8.61-2.58,1.66-4.8.56A60.62,60.62,0,0,1,85.37,100,66.56,66.56,0,0,1,73,84.77c-1.29-2.2-.13-3.39,1-4.49s2.21-2.56,3.32-3.85a14.64,14.64,0,0,0,2.21-3.66,4,4,0,0,0-.18-3.86c-.55-1.1-5-11.91-6.83-16.32s-3.69-3.66-5-3.66-2.77-.19-4.24-.19a8.17,8.17,0,0,0-5.91,2.75c-2,2.2-7.76,7.52-7.76,18.34s7.94,21.27,9,22.73S74,117,96.54,125.75s22.52,5.87,26.59,5.5,13.1-5.32,15-10.45S139.93,111.26,139.38,110.34Z"/></g></g></svg>